<?xml version="1.0" encoding="UTF-8"?>
<svg id="_Слой_1" data-name="Слой 1" xmlns="http://www.w3.org/2000/svg" xmlns:xlink="http://www.w3.org/1999/xlink" viewBox="0 0 32.37 37">
  <defs>
    <style>
      .cls-1 {
        fill: url(#_Безымянный_градиент_3);
        stroke-width: 0px;
      }
    </style>
    <linearGradient id="_Безымянный_градиент_3" data-name="Безымянный градиент 3" x1="0" y1="18.5" x2="32.37" y2="18.5" gradientUnits="userSpaceOnUse">
      <stop offset="0" stop-color="#00ff8f"/>
      <stop offset="1" stop-color="#00a1ff"/>
    </linearGradient>
  </defs>
  <path class="cls-1" d="m30.63,0c.46,0,.87.17,1.22.52s.52.76.52,1.23v33.5c0,.47-.17.88-.52,1.22-.35.35-.75.53-1.22.53h-4.37c-.6,0-1.08-.23-1.44-.7L.37,2.8C-.07,2.2-.12,1.58.22.95c.3-.63.81-.95,1.54-.95h4.37c.63,0,1.09.23,1.39.7l17.6,23.85V1.75c0-.47.17-.88.5-1.23.33-.35.75-.52,1.24-.52h3.77ZM5.53,24.25c.46,0,.87.17,1.22.5s.52.75.52,1.25v9.25c0,.47-.17.88-.52,1.22-.35.35-.75.53-1.22.53H1.76c-.46,0-.87-.17-1.22-.53-.35-.35-.52-.76-.52-1.22v-9.25c0-.5.17-.92.52-1.25s.75-.5,1.22-.5h3.77Z"/>
</svg>